<svg xmlns="http://www.w3.org/2000/svg" width="800" height="450" viewBox="0 0 1200 630"><rect width="1200" height="630" fill="#111024"/><text x="64" y="77" font-family="Arial,sans-serif" font-size="28" font-weight="700" fill="#c4b5fd">Nostr WoT</text><path d="M64 102H1136" stroke="#363052"/><g transform="translate(64 141)"><rect width="340" height="408" rx="24" fill="#ffffff" stroke="#504866"/><circle cx="38" cy="39" r="8" fill="#6366f1"/><text x="60" y="49" fill="#333333" font-family="Arial,sans-serif" font-size="27" font-weight="700">Light</text><rect x="26" y="85" width="288" height="163" rx="15" fill="#f0f0fe"/><circle cx="67" cy="126" r="16" fill="#6366f1"/><path d="M99 121H257M99 138H214M48 190H280M48 214H224" stroke="#333333" stroke-opacity=".55" stroke-width="8" stroke-linecap="round"/><rect x="26" y="270" width="288" height="49" rx="13" fill="#6366f1"/><rect x="26" y="338" width="288" height="42" rx="12" fill="#f0f0fe"/><circle cx="282" cy="359" r="9" fill="#6366f1"/></g><g transform="translate(430 141)"><rect width="340" height="408" rx="24" fill="#030712" stroke="#504866"/><circle cx="38" cy="39" r="8" fill="#818cf8"/><text x="60" y="49" fill="#ffffff" font-family="Arial,sans-serif" font-size="27" font-weight="700">Dark</text><rect x="26" y="85" width="288" height="163" rx="15" fill="#151e30"/><circle cx="67" cy="126" r="16" fill="#818cf8"/><path d="M99 121H257M99 138H214M48 190H280M48 214H224" stroke="#ffffff" stroke-opacity=".55" stroke-width="8" stroke-linecap="round"/><rect x="26" y="270" width="288" height="49" rx="13" fill="#818cf8"/><rect x="26" y="338" width="288" height="42" rx="12" fill="#151e30"/><circle cx="282" cy="359" r="9" fill="#818cf8"/></g><g transform="translate(796 141)"><rect width="340" height="408" rx="24" fill="#11110f" stroke="#504866"/><circle cx="38" cy="39" r="8" fill="#c7ff5b"/><text x="60" y="49" fill="#f5f0e6" font-family="Arial,sans-serif" font-size="27" font-weight="700">La Crypta</text><rect x="26" y="85" width="288" height="163" rx="15" fill="#25291d"/><circle cx="67" cy="126" r="16" fill="#c7ff5b"/><path d="M99 121H257M99 138H214M48 190H280M48 214H224" stroke="#f5f0e6" stroke-opacity=".55" stroke-width="8" stroke-linecap="round"/><rect x="26" y="270" width="288" height="49" rx="13" fill="#c7ff5b"/><rect x="26" y="338" width="288" height="42" rx="12" fill="#25291d"/><circle cx="282" cy="359" r="9" fill="#c7ff5b"/></g></svg>