<svg xmlns="http://www.w3.org/2000/svg" viewBox="0 0 1200 630" width="1200" height="630" role="img" aria-label="Amber 6 6 7 Gives Dead Relays A Second Chance">
  <defs>
    <linearGradient id="bg" x1="0" y1="0" x2="0.711" y2="0.047">
      <stop offset="0%" stop-color="#1a0e1c"/>
      <stop offset="100%" stop-color="#5c0e2e"/>
    </linearGradient>
  </defs>
  <rect width="1200" height="630" fill="url(#bg)"/>
  <g>
    <line x1="455" y1="88" x2="413" y2="306" stroke="#fb7185" stroke-width="1.5" opacity="0.16"/>
    <line x1="413" y1="306" x2="197" y2="497" stroke="#fb7185" stroke-width="1.5" opacity="0.16"/>
    <line x1="197" y1="497" x2="660" y2="279" stroke="#fb7185" stroke-width="1.5" opacity="0.16"/>
    <line x1="197" y1="497" x2="455" y2="88" stroke="#fb7185" stroke-width="1.5" opacity="0.16"/>
    <line x1="660" y1="279" x2="191" y2="510" stroke="#fb7185" stroke-width="1.5" opacity="0.16"/>
    <line x1="660" y1="279" x2="413" y2="306" stroke="#fb7185" stroke-width="1.5" opacity="0.16"/>
    <line x1="191" y1="510" x2="988" y2="378" stroke="#fb7185" stroke-width="1.5" opacity="0.16"/>
    <line x1="988" y1="378" x2="455" y2="88" stroke="#fb7185" stroke-width="1.5" opacity="0.16"/>
    <circle cx="455" cy="88" r="7" fill="#fb7185" opacity="0.28"/>
    <circle cx="413" cy="306" r="3" fill="#fb7185" opacity="0.28"/>
    <circle cx="197" cy="497" r="7" fill="#fb7185" opacity="0.28"/>
    <circle cx="660" cy="279" r="5" fill="#fb7185" opacity="0.28"/>
    <circle cx="191" cy="510" r="6" fill="#fb7185" opacity="0.28"/>
    <circle cx="988" cy="378" r="6" fill="#fb7185" opacity="0.28"/>
  </g>
  <g transform="translate(1010 317) rotate(4) scale(1.94)" opacity="0.18">
      <circle cx="-70" cy="-60" r="14" fill="#fda4af"/>
      <circle cx="-70" cy="60" r="14" fill="#fda4af"/>
      <circle cx="50" cy="0" r="18" fill="#fda4af"/>
      <path d="M -70 -60 C 10 -60, 10 0, 50 0" stroke="#fda4af" stroke-width="10" fill="none"/>
      <path d="M -70 60 C 10 60, 10 0, 50 0" stroke="#fda4af" stroke-width="10" fill="none"/>
    </g>
  <text x="80" y="72" font-family="system-ui,-apple-system,Segoe UI,Roboto,sans-serif" font-size="20" font-weight="700" fill="#fda4af" letter-spacing="4" opacity="0.85">NOSTR WOT NEWS</text>
  <rect x="80" y="96" width="142" height="44" rx="22" fill="#fda4af"/>
  <text x="151" y="124" text-anchor="middle" font-family="system-ui,-apple-system,Segoe UI,Roboto,sans-serif" font-size="22" font-weight="800" fill="#1a0e1c" letter-spacing="1">DIGEST</text>
  <text font-family="system-ui,-apple-system,Segoe UI,Roboto,sans-serif" font-size="46" font-weight="700" fill="#ffffff">
      <tspan x="80" y="480">Amber 6 6 7 Gives Dead Relays A</tspan>
      <tspan x="80" y="534">Second Chance</tspan>
  </text>
</svg>
