<svg xmlns="http://www.w3.org/2000/svg" viewBox="0 0 1200 630" width="1200" height="630" role="img" aria-label="NIP A3 Adds Payto Payment Targets">
  <defs>
    <linearGradient id="bg" x1="0" y1="0" x2="0.013" y2="0.388">
      <stop offset="0%" stop-color="#05261c"/>
      <stop offset="100%" stop-color="#0f5c3a"/>
    </linearGradient>
  </defs>
  <rect width="1200" height="630" fill="url(#bg)"/>
  <g>
    <line x1="198" y1="302" x2="177" y2="383" stroke="#34d399" stroke-width="1.5" opacity="0.16"/>
    <line x1="177" y1="383" x2="486" y2="154" stroke="#34d399" stroke-width="1.5" opacity="0.16"/>
    <line x1="177" y1="383" x2="859" y2="234" stroke="#34d399" stroke-width="1.5" opacity="0.16"/>
    <line x1="486" y1="154" x2="1057" y2="84" stroke="#34d399" stroke-width="1.5" opacity="0.16"/>
    <line x1="486" y1="154" x2="1128" y2="163" stroke="#34d399" stroke-width="1.5" opacity="0.16"/>
    <line x1="1057" y1="84" x2="859" y2="234" stroke="#34d399" stroke-width="1.5" opacity="0.16"/>
    <line x1="859" y1="234" x2="1128" y2="163" stroke="#34d399" stroke-width="1.5" opacity="0.16"/>
    <line x1="859" y1="234" x2="198" y2="302" stroke="#34d399" stroke-width="1.5" opacity="0.16"/>
    <line x1="1128" y1="163" x2="1082" y2="133" stroke="#34d399" stroke-width="1.5" opacity="0.16"/>
    <line x1="1128" y1="163" x2="1057" y2="84" stroke="#34d399" stroke-width="1.5" opacity="0.16"/>
    <line x1="1082" y1="133" x2="198" y2="302" stroke="#34d399" stroke-width="1.5" opacity="0.16"/>
    <line x1="1082" y1="133" x2="177" y2="383" stroke="#34d399" stroke-width="1.5" opacity="0.16"/>
    <circle cx="198" cy="302" r="8" fill="#34d399" opacity="0.28"/>
    <circle cx="177" cy="383" r="8" fill="#34d399" opacity="0.28"/>
    <circle cx="486" cy="154" r="3" fill="#34d399" opacity="0.28"/>
    <circle cx="1057" cy="84" r="6" fill="#34d399" opacity="0.28"/>
    <circle cx="859" cy="234" r="4" fill="#34d399" opacity="0.28"/>
    <circle cx="1128" cy="163" r="8" fill="#34d399" opacity="0.28"/>
    <circle cx="1082" cy="133" r="8" fill="#34d399" opacity="0.28"/>
  </g>
  <g transform="translate(976 383) rotate(1) scale(1.69)" opacity="0.18">
      <circle cx="-70" cy="-60" r="14" fill="#6ee7b7"/>
      <circle cx="-70" cy="60" r="14" fill="#6ee7b7"/>
      <circle cx="50" cy="0" r="18" fill="#6ee7b7"/>
      <path d="M -70 -60 C 10 -60, 10 0, 50 0" stroke="#6ee7b7" stroke-width="10" fill="none"/>
      <path d="M -70 60 C 10 60, 10 0, 50 0" stroke="#6ee7b7" stroke-width="10" fill="none"/>
    </g>
  <text x="80" y="72" font-family="system-ui,-apple-system,Segoe UI,Roboto,sans-serif" font-size="20" font-weight="700" fill="#6ee7b7" letter-spacing="4" opacity="0.85">NOSTR WOT NEWS</text>
  <rect x="80" y="96" width="142" height="44" rx="22" fill="#6ee7b7"/>
  <text x="151" y="124" text-anchor="middle" font-family="system-ui,-apple-system,Segoe UI,Roboto,sans-serif" font-size="22" font-weight="800" fill="#05261c" letter-spacing="1">DIGEST</text>
  <text font-family="system-ui,-apple-system,Segoe UI,Roboto,sans-serif" font-size="54" font-weight="700" fill="#ffffff">
      <tspan x="80" y="470">NIP A3 Adds Payto Payment</tspan>
      <tspan x="80" y="534">Targets</tspan>
  </text>
</svg>
