<svg xmlns="http://www.w3.org/2000/svg" viewBox="0 0 1200 630" width="1200" height="630" role="img" aria-label="NIP 54 Switches To Djot">
  <defs>
    <linearGradient id="bg" x1="0" y1="0" x2="0.854" y2="0.146">
      <stop offset="0%" stop-color="#0c1c2e"/>
      <stop offset="100%" stop-color="#0e4a5c"/>
    </linearGradient>
  </defs>
  <rect width="1200" height="630" fill="url(#bg)"/>
  <g>
    <line x1="824" y1="393" x2="921" y2="488" stroke="#38bdf8" stroke-width="1.5" opacity="0.16"/>
    <line x1="824" y1="393" x2="406" y2="219" stroke="#38bdf8" stroke-width="1.5" opacity="0.16"/>
    <line x1="921" y1="488" x2="406" y2="219" stroke="#38bdf8" stroke-width="1.5" opacity="0.16"/>
    <line x1="921" y1="488" x2="697" y2="402" stroke="#38bdf8" stroke-width="1.5" opacity="0.16"/>
    <line x1="406" y1="219" x2="1000" y2="502" stroke="#38bdf8" stroke-width="1.5" opacity="0.16"/>
    <line x1="406" y1="219" x2="704" y2="146" stroke="#38bdf8" stroke-width="1.5" opacity="0.16"/>
    <line x1="1000" y1="502" x2="697" y2="402" stroke="#38bdf8" stroke-width="1.5" opacity="0.16"/>
    <line x1="1000" y1="502" x2="824" y2="393" stroke="#38bdf8" stroke-width="1.5" opacity="0.16"/>
    <line x1="697" y1="402" x2="704" y2="146" stroke="#38bdf8" stroke-width="1.5" opacity="0.16"/>
    <line x1="697" y1="402" x2="1053" y2="313" stroke="#38bdf8" stroke-width="1.5" opacity="0.16"/>
    <line x1="704" y1="146" x2="1053" y2="313" stroke="#38bdf8" stroke-width="1.5" opacity="0.16"/>
    <line x1="1053" y1="313" x2="800" y2="232" stroke="#38bdf8" stroke-width="1.5" opacity="0.16"/>
    <line x1="1053" y1="313" x2="406" y2="219" stroke="#38bdf8" stroke-width="1.5" opacity="0.16"/>
    <line x1="800" y1="232" x2="824" y2="393" stroke="#38bdf8" stroke-width="1.5" opacity="0.16"/>
    <circle cx="824" cy="393" r="6" fill="#38bdf8" opacity="0.28"/>
    <circle cx="921" cy="488" r="5" fill="#38bdf8" opacity="0.28"/>
    <circle cx="406" cy="219" r="8" fill="#38bdf8" opacity="0.28"/>
    <circle cx="1000" cy="502" r="5" fill="#38bdf8" opacity="0.28"/>
    <circle cx="697" cy="402" r="7" fill="#38bdf8" opacity="0.28"/>
    <circle cx="704" cy="146" r="6" fill="#38bdf8" opacity="0.28"/>
    <circle cx="1053" cy="313" r="6" fill="#38bdf8" opacity="0.28"/>
    <circle cx="800" cy="232" r="6" fill="#38bdf8" opacity="0.28"/>
  </g>
  <g transform="rotate(5 911 335)">
      <text x="911" y="335" text-anchor="middle" dominant-baseline="middle" font-family="system-ui,-apple-system,Segoe UI,Roboto,sans-serif" font-size="340" font-weight="800" fill="#7dd3fc" opacity="0.16">54</text>
    </g>
  <text x="80" y="72" font-family="system-ui,-apple-system,Segoe UI,Roboto,sans-serif" font-size="20" font-weight="700" fill="#7dd3fc" letter-spacing="4" opacity="0.85">NOSTR WOT NEWS</text>
  <rect x="80" y="96" width="142" height="44" rx="22" fill="#7dd3fc"/>
  <text x="151" y="124" text-anchor="middle" font-family="system-ui,-apple-system,Segoe UI,Roboto,sans-serif" font-size="22" font-weight="800" fill="#0c1c2e" letter-spacing="1">NIP-54</text>
  <text font-family="system-ui,-apple-system,Segoe UI,Roboto,sans-serif" font-size="54" font-weight="700" fill="#ffffff">
      <tspan x="80" y="534">NIP 54 Switches To Djot</tspan>
  </text>
</svg>
